<?xml version="1.0" encoding="UTF-8"?>
<svg version="1.1" xmlns="http://www.w3.org/2000/svg" width="128" height="128">
<path d="M0 0 C1.7265625 1.16796875 1.7265625 1.16796875 3.1796875 2.71875 C5.07666211 4.49596612 6.60211798 4.88611814 9.1015625 5.54296875 C13.45269582 6.9132932 15.87833161 8.48202289 18.7265625 12.16796875 C19.1596875 13.34359375 19.5928125 14.51921875 20.0390625 15.73046875 C22.10078442 19.93027266 23.67516961 20.38226443 27.7890625 22.13671875 C31.77364836 24.25754671 33.35804612 28.06241962 34.7265625 32.16796875 C34.69604011 33.96046535 34.62981175 35.75251063 34.5390625 37.54296875 C34.48011903 42.5269664 35.18983723 44.52722215 38.7265625 48.16796875 C41.24223374 53.9540126 41.54401364 59.24979064 39.5390625 65.23046875 C37.43616203 70.30101381 34.6759637 73.82195363 30.1015625 76.98046875 C20.22824603 80.45441343 12.34742324 78.82361245 2.7265625 75.16796875 C2.0665625 74.83796875 1.4065625 74.50796875 0.7265625 74.16796875 C1.2215625 72.18796875 1.2215625 72.18796875 1.7265625 70.16796875 C0.57813327 71.45732794 -0.56709977 72.74953454 -1.7109375 74.04296875 C-2.66806641 75.12191406 -2.66806641 75.12191406 -3.64453125 76.22265625 C-7.80100635 81.18650421 -6.49869169 87.67829487 -6.5234375 93.85546875 C-6.5440625 95.12326172 -6.5646875 96.39105469 -6.5859375 97.69726562 C-6.61368133 104.32457232 -6.50533347 109.33260102 -3.2734375 115.16796875 C-2.9434375 116.15796875 -2.6134375 117.14796875 -2.2734375 118.16796875 C-0.20585121 119.11798163 -0.20585121 119.11798163 2.2265625 119.73046875 C4.6953125 120.421875 4.6953125 120.421875 6.7265625 121.16796875 C7.0565625 121.82796875 7.3865625 122.48796875 7.7265625 123.16796875 C-6.4634375 123.16796875 -20.6534375 123.16796875 -35.2734375 123.16796875 C-33.93167549 120.48444474 -32.67245955 120.44139436 -29.8984375 119.41796875 C-26.56088719 117.98229235 -25.4379051 117.39925131 -23.2734375 114.35546875 C-21.04906518 107.26528198 -21.03207851 100.10542055 -20.9609375 92.73046875 C-20.93193359 91.73208984 -20.90292969 90.73371094 -20.87304688 89.70507812 C-20.8026094 81.46389353 -22.6802646 75.94913959 -28.0859375 69.73046875 C-32.66884978 66.00998635 -38.3207069 66.43832011 -43.9453125 66.37109375 C-47.2734375 66.16796875 -47.2734375 66.16796875 -50.2734375 64.16796875 C-49.87540189 61.28221056 -49.48334681 60.34607362 -47.2109375 58.41796875 C-46.251875 57.79921875 -46.251875 57.79921875 -45.2734375 57.16796875 C-47.5834375 54.85796875 -49.8934375 52.54796875 -52.2734375 50.16796875 C-55.51295853 53.40748978 -55.70439083 53.71858732 -55.7109375 57.98046875 C-55.55740642 62.76086817 -54.59663197 65.57532608 -51.2734375 69.16796875 C-47.25011366 71.62666665 -42.87542723 71.65884765 -38.2734375 71.16796875 C-37.0565625 70.75546875 -35.8396875 70.34296875 -34.5859375 69.91796875 C-31.2734375 69.16796875 -31.2734375 69.16796875 -28.3359375 70.85546875 C-26.2734375 73.16796875 -26.2734375 73.16796875 -26.2734375 76.16796875 C-34.69372882 79.42743636 -43.91429382 80.92942169 -52.76953125 78.4765625 C-58.46473666 75.90349238 -61.98823543 71.98317328 -64.5859375 66.29296875 C-66.133629 59.25800737 -65.55820168 53.54588588 -62.2734375 47.16796875 C-60.94010417 45.50130208 -59.60677083 43.83463542 -58.2734375 42.16796875 C-58.7684375 40.68296875 -58.7684375 40.68296875 -59.2734375 39.16796875 C-59.69485686 33.68951705 -58.9483115 29.98274194 -56.2734375 25.16796875 C-53.15298732 21.68884614 -50.01704341 19.58652221 -45.2734375 19.16796875 C-45.1084375 18.28109375 -44.9434375 17.39421875 -44.7734375 16.48046875 C-42.70810084 11.91951696 -39.79701295 10.1465199 -35.2734375 8.16796875 C-34.0771875 8.04421875 -32.8809375 7.92046875 -31.6484375 7.79296875 C-27.28247226 6.98445667 -26.41751213 5.26305938 -23.79296875 1.890625 C-17.50938489 -5.2329238 -7.51283729 -4.03467188 0 0 Z M-20.2734375 10.16796875 C-17.9634375 11.81796875 -15.6534375 13.46796875 -13.2734375 15.16796875 C-12.14755736 14.21066959 -11.022766 13.2520898 -9.8984375 12.29296875 C-9.27195312 11.75929688 -8.64546875 11.225625 -8 10.67578125 C-6.71507099 9.55364868 -5.47971775 8.374249 -4.2734375 7.16796875 C-10.67701599 3.06967852 -15.64739018 4.56063866 -20.2734375 10.16796875 Z M-5.2734375 17.16796875 C-8.45796599 21.99966715 -8.56295402 25.57064943 -8.2734375 31.16796875 C-5.16691105 30.83212805 -3.66929447 30.57747596 -1.4609375 28.29296875 C-0.02952682 26.13721247 -0.02952682 26.13721247 -0.2734375 23.16796875 C2.0365625 23.16796875 4.3465625 23.16796875 6.7265625 23.16796875 C7.78981732 26.45439273 7.81074476 27.93880594 6.6015625 31.23046875 C3.62672458 35.89104815 0.72625525 38.06645681 -4.5859375 39.41796875 C-5.8028125 39.66546875 -7.0196875 39.91296875 -8.2734375 40.16796875 C-8.2734375 44.12796875 -8.2734375 48.08796875 -8.2734375 52.16796875 C-3.15253525 50.18869401 -3.15253525 50.18869401 -0.3359375 46.23046875 C2.26752922 42.50643775 4.53900072 41.02910732 8.7265625 39.16796875 C13.14655394 34.44315032 13.06100696 29.07586025 13.01953125 22.87109375 C12.59037531 18.91141491 11.35967772 17.11086223 8.7265625 14.16796875 C3.2813069 11.44534095 -1.29489335 12.96839437 -5.2734375 17.16796875 Z M-35.7109375 17.04296875 C-38.61826999 20.99694093 -39.45379836 25.53192537 -39.12109375 30.39453125 C-38.44119572 33.85229837 -37.47992951 35.95574085 -35.0234375 38.48046875 C-32.28713069 40.2403417 -32.28713069 40.2403417 -29.2109375 41.54296875 C-25.62637037 43.52592078 -24.42075261 45.73226457 -22.2734375 49.16796875 C-20.16768107 51.00097784 -20.16768107 51.00097784 -18.2734375 52.16796875 C-17.2834375 51.67296875 -17.2834375 51.67296875 -16.2734375 51.16796875 C-16.6034375 47.53796875 -16.9334375 43.90796875 -17.2734375 40.16796875 C-18.09328125 39.87664063 -18.913125 39.5853125 -19.7578125 39.28515625 C-29.66573109 35.51635468 -29.66573109 35.51635468 -32.0859375 32.16796875 C-33.37825864 28.90315746 -33.42921596 27.44267438 -32.2734375 24.16796875 C-30.6234375 23.83796875 -28.9734375 23.50796875 -27.2734375 23.16796875 C-26.89832031 23.73386719 -26.52320313 24.29976562 -26.13671875 24.8828125 C-23.07980323 29.52569726 -23.07980323 29.52569726 -18.3984375 32.16796875 C-17.6971875 32.16796875 -16.9959375 32.16796875 -16.2734375 32.16796875 C-15.49271744 26.81427772 -15.49271744 26.81427772 -17.73828125 22.11328125 C-21.87055422 18.16921081 -25.53020977 16.13916779 -31.29296875 15.98046875 C-33.3910913 16.09663098 -33.3910913 16.09663098 -35.7109375 17.04296875 Z M-48.2734375 28.16796875 C-50.38681296 31.33803194 -50.57035183 33.20224512 -50.734375 36.9375 C-49.48567747 42.97992619 -44.62204249 46.99914719 -40.0859375 50.79296875 C-39.1880249 51.55250854 -39.1880249 51.55250854 -38.27197266 52.32739258 C-33.38774501 56.38758642 -28.31971635 60.1700614 -23.1484375 63.85546875 C-22.4263208 64.37254395 -21.7042041 64.88961914 -20.96020508 65.42236328 C-19.93576294 66.13755127 -19.93576294 66.13755127 -18.890625 66.8671875 C-17.98739502 67.49886841 -17.98739502 67.49886841 -17.06591797 68.14331055 C-15.11587294 69.25803937 -13.49293407 69.83216719 -11.2734375 70.16796875 C-9.26287582 69.06415538 -9.26287582 69.06415538 -7.3359375 67.29296875 C-3.62912295 64.22631132 0.18192862 61.42462483 4.1640625 58.73046875 C17.90693243 50.07553966 17.90693243 50.07553966 26.7265625 37.10546875 C26.7265625 33.52767806 25.94649833 31.94288854 23.7265625 29.16796875 C22.7365625 28.83796875 21.7465625 28.50796875 20.7265625 28.16796875 C20.55640625 28.97621094 20.38625 29.78445312 20.2109375 30.6171875 C17.68392426 41.76024057 17.68392426 41.76024057 13.7265625 45.16796875 C12.5715625 45.64234375 11.4165625 46.11671875 10.2265625 46.60546875 C6.03355658 48.47734639 5.08279158 50.31946125 2.7265625 54.16796875 C-1.20413304 57.9863587 -5.89808567 60.95685553 -11.2734375 62.16796875 C-18.06400646 61.57665516 -24.39924956 58.96849138 -29.2734375 54.16796875 C-30.87458779 52.14775197 -32.37329577 50.07859741 -33.859375 47.97265625 C-35.68215353 45.64634773 -37.58410675 44.36322686 -40.2734375 43.16796875 C-40.9334375 43.16796875 -41.5934375 43.16796875 -42.2734375 43.16796875 C-44.84107972 38.21608733 -46.49858134 33.72110457 -47.2734375 28.16796875 C-47.6034375 28.16796875 -47.9334375 28.16796875 -48.2734375 28.16796875 Z M23.6015625 53.10546875 C22.87710938 53.65074219 22.15265625 54.19601563 21.40625 54.7578125 C20.85195312 55.22316406 20.29765625 55.68851563 19.7265625 56.16796875 C19.7265625 56.49796875 19.7265625 56.82796875 19.7265625 57.16796875 C22.2015625 57.66296875 22.2015625 57.66296875 24.7265625 58.16796875 C24.7265625 59.81796875 24.7265625 61.46796875 24.7265625 63.16796875 C23.79714844 63.19375 22.86773437 63.21953125 21.91015625 63.24609375 C14.75358514 63.57444529 9.55763263 63.86408366 3.7265625 68.16796875 C4.2628125 68.29171875 4.7990625 68.41546875 5.3515625 68.54296875 C7.7265625 69.16796875 7.7265625 69.16796875 10.4140625 70.23046875 C15.91487202 71.78730163 20.68941025 71.88474454 26.1015625 69.98046875 C29.2041508 67.8382054 30.3731481 66.70188412 31.7265625 63.16796875 C32.23059567 58.16763963 32.5681953 54.43041794 29.7265625 50.16796875 C26.92532971 50.16796875 25.80887836 51.42426939 23.6015625 53.10546875 Z " fill="#115E59" transform="translate(76.2734375,3.83203125)"/>
</svg>
